PathFileType	4	(X/Y/Z)	C:/Users/beibeiliu/ov580/test_trc/User2\sequence.2_training_dense_right.trc
DataRate	CameraRate	NumFrames	NumMarkers	Units	OrigDataRate	OrigDataStartFrame	OrigNumFrames
120	120	18	19	mm	120	269	307
Frame#	Time	ThumbCMC			ThumbMCP			ThumbIP			ThumbTip			IndexMCP			IndexPIP			IndexTip			MiddleMCP			MiddlePIP			MiddleTip			RingMCP			RingPIP			RingTip			PinkyMCP			PinkyPIP			PinkyTip			BackHand1			BackHand2			BackHand3	
		X0	Y0	Z0	X1	Y1	Z1	X2	Y2	Z2	X3	Y3	Z3	X4	Y4	Z4	X5	Y5	Z5	X6	Y6	Z6	X7	Y7	Z7	X8	Y8	Z8	X9	Y9	Z9	X10	Y10	Z10	X11	Y11	Z11	X12	Y12	Z12	X13	Y13	Z13	X14	Y14	Z14	X15	Y15	Z15	X16	Y16	Z16	X17	Y17	Z17	X18	Y18	Z18	
268	2.23333	69.7916	72.0454	69.4308	41.5732	72.0178	38.7584	26.4683	65.8007	11.623	24.7943	50.5482	-18.0897	91.3072	73.5255	-16.2296	64.0553	68.4196	-34.1223	36.9555	56.8686	-17.1006	94.1169	53.4357	-23.5347	62.695	47.4826	-37.5832	35.4999	35.032	-6.5184	92.183	33.9188	-23.2614	61.1707	28.6669	-31.2085	38.5325	27.0897	-4.59195	95.1228	9.83216	-9.58093	60.9271	9.64596	-21.483	37.954	10.6818	1.77468	120.522	29.9086	34.7092	123.717	22.6404	70.9174	111.946	62.4324	61.4888	
269	2.24167	76.8877	66.8741	56.7218	49.6412	67.3592	30.5895	29.6068	59.0225	2.34302	24.9117	38.6202	-18.8084	95.3356	55.0304	-22.8571	68.0426	42.7706	-41.2688	40.3272	38.825	-25.7855	96.416	32.637	-25.9345	60.3992	21.4692	-39.7489	34.3344	24.1996	-8.42643	91.9266	8.69197	-19.768	61.1289	7.04595	-31.2882	35.9452	14.9725	-7.51394	88.217	-12.3653	-5.34691	55.7465	-8.89322	-15.4303	33.7632	1.82598	5.27072	120.589	15.1044	34.7934	124.312	17.3445	67.8222	117.067	53.4445	51.5302	
270	2.25	87.4032	65.0129	43.6218	57.2897	63.9374	20.7824	37.5513	48.6073	-1.73646	27.5364	24.9931	-16.9179	98.1024	21.5881	-27.4791	68.6904	12.6046	-43.2462	39.9859	18.7748	-30.4593	94.3913	2.91753	-28.1857	59.3827	-3.70942	-38.8972	32.4914	15.5661	-11.8449	83.9936	-16.9574	-16.3272	51.1475	-13.3391	-24.8714	29.7229	4.52544	-2.51999	80.0882	-31.4808	5.29782	47.8377	-27.5831	-5.05825	30.7963	-3.89755	8.38529	116.937	-1.81502	39.7557	125.651	9.15714	70.5601	125.063	36.5228	45.5122	
271	2.25833	98.1715	54.0274	35.5252	67.0054	53.4813	11.3541	42.2337	39.9543	-9.58876	29.654	14.6516	-19.2423	98.0065	-1.27018	-27.6817	69.0526	-9.61122	-43.0605	37.3369	3.77782	-28.4866	90.8266	-21.5269	-23.2223	55.1166	-24.9924	-33.748	32.2169	-1.22451	-11.629	79.7976	-35.2228	-7.66726	45.4972	-32.8493	-14.9355	27.9611	-6.49497	-0.56637	73.3691	-42.5802	13.7991	39.2762	-34.7496	4.23639	26.5165	-9.65469	12.7944	117.928	-17.7396	37.6161	125.33	-4.70482	73.2855	131	21.1446	38.1643	
272	2.26667	102.939	44.3992	31.1122	73.4552	42.3453	10.6712	48.4077	27.9953	-10.1061	31.2401	11.0923	-17.9835	100.495	-10.8437	-26.8519	70.5564	-22.6534	-39.9965	41.7648	-7.21638	-32.0554	88.842	-35.8594	-19.9851	52.8458	-33.1007	-30.5307	32.5482	-3.38536	-8.35901	79.7386	-41.9678	-4.58323	43.245	-39.0992	-11.6477	29.6079	-12.1003	1.18332	69.233	-50.0497	16.4174	38.0793	-39.7447	8.57364	26.5979	-12.6509	20.7107	116.599	-23.8955	40.7857	130.308	-11.1148	69.5528	132.132	8.5739	39.1125	
273	2.275	102.86	46.2902	37.6127	72.9004	39.4556	14.707	46.6352	31.6827	-6.04843	30.6903	10.546	-19.6984	103.666	-8.4276	-24.4678	76.2102	-18.2401	-42.199	45.2484	-6.38732	-30.5949	93.9065	-31.3593	-18.838	55.4661	-29.7864	-31.5346	35.7236	-6.18171	-10.6805	79.1992	-42.2173	-6.20072	48.2235	-37.5874	-12.6557	32.2117	-8.23153	2.79252	74.4941	-49.7923	17.379	45.7028	-39.3875	4.17334	29.9584	-16.2219	17.3675	121.5	-20.9575	43.1635	129.126	-10.346	68.8601	132.17	10.3055	37.1088	
274	2.28333	99.427	50.6494	46.731	69.8464	47.6326	23.8588	43.8115	35.0233	-5.38097	31.0413	14.4979	-15.1526	103.371	3.98166	-27.283	77.1955	-6.28839	-41.8803	45.9778	6.39285	-34.4884	93.9862	-17.6099	-24.895	58.1059	-18.5217	-33.0995	36.8876	4.84698	-9.65262	80.9498	-33.9399	-11.3788	54.3759	-27.9149	-18.5951	33.1492	-5.26856	4.5556	78.1121	-43.5807	13.9691	46.1051	-34.5107	1.1173	31.0683	-13.8634	18.7762	122.321	-15.6992	41.0265	130.96	-8.4482	75.5031	129.979	17.3136	42.3379	
275	2.29167	91.9167	56.2062	52.0481	61.3218	55.4647	26.3475	42.2899	41.2544	1.94537	28.787	24.1527	-15.1033	102.346	21.1205	-20.6058	74.9308	13.556	-42.7987	41.3334	22.2394	-29.7261	94.8285	-2.79683	-23.128	58.5234	-1.69608	-34.4829	37.6624	12.08	-7.33132	86.3121	-18.7479	-11.0384	53.2537	-17.3623	-19.6845	34.9011	2.79071	1.19369	79.1949	-31.8442	4.28225	49.98	-21.6684	-5.02499	31.1012	-6.8991	12.9677	118.092	-9.64627	38.0178	128.69	0.952194	72.4871	125.923	27.592	48.0795	
276	2.3	83.2691	61.7422	62.4522	52.6044	61.8549	35.7377	31.4848	53.661	7.62998	23.6595	32.8944	-13.5015	97.5975	41.2602	-17.6597	71.8176	30.4742	-38.3001	36.3278	35.3317	-24.8444	93.7061	20.6964	-22.0226	56.1574	14.0243	-34.0652	34.6671	19.5338	-4.4826	83.5804	-0.229935	-18.5563	51.6259	-0.137771	-23.1756	33.2636	8.85534	0.931184	83.1927	-14.589	-1.29811	51.4071	-10.3348	-9.98343	29.4336	-1.50067	9.84006	117.331	5.61223	36.203	124.897	5.28098	73.6324	120.725	38.6305	50.3695	
277	2.30833	75.6205	62.6138	63.3073	47.4582	61.5354	40.8248	24.7796	55.9153	11.8073	18.5695	38.4354	-5.01456	88.8621	54.3073	-16.0573	63.7283	48.4193	-35.0892	30.2732	40.4903	-16.9242	89.4384	33.5324	-21.261	55.3068	26.8722	-34.0052	30.492	25.1554	2.14328	82.5189	14.7762	-18.9547	53.9951	7.83105	-25.5893	29.9104	16.8432	3.60715	84.2526	-5.77821	-2.29841	50.0229	-6.10975	-12.3097	30.5241	3.77649	9.80758	116.856	14.7679	36.5795	125.293	14.5277	72.6948	116.153	52.0666	54.6307	
278	2.31667	68.6945	66.0264	68.0382	41.3691	61.4513	43.4113	18.7726	55.8149	16.5759	13.886	38.4114	-6.27553	81.5121	64.6249	-13.5729	54.2392	54.0672	-31.4878	28.037	43.189	-15.5309	83.709	39.3985	-20.9576	50.8402	34.4959	-33.1396	25.233	28.3941	-2.05582	79.8888	22.4964	-19.1995	50.6301	14.6953	-25.7091	28.9444	14.4037	2.83303	84.9686	0.374444	-3.75056	52.9298	-3.40162	-15.3511	26.8287	1.82683	9.38216	114.809	21.0001	35.8604	125.481	16.0969	71.4977	110.756	56.3234	56.561	
279	2.325	67.0747	64.2971	69.6612	36.2244	60.3319	47.2492	12.9957	54.6943	20.809	8.65916	37.3438	-1.13022	76.1248	61.357	-13.6277	48.32	51.0877	-29.6086	21.3319	43.4664	-14.427	79.8928	41.1877	-20.5145	44.1682	30.5974	-31.8217	22.028	23.6318	-3.12026	78.5533	22.5695	-18.8345	48.1474	12.9368	-25.7019	27.0356	9.85795	1.02188	84.0529	-2.21315	-5.32605	51.5371	-4.77598	-14.6997	27.0956	0.378551	8.40113	116.342	20.1722	38.0478	124.25	22.5406	68.3387	110.499	56.0594	55.5845	
280	2.33333	65.1474	61.0302	68.473	36.1372	54.0617	47.1223	13.6438	43.5849	16.604	5.87829	27.1954	-3.95602	73.0386	53.2969	-15.321	42.6491	42.8611	-31.6412	17.2142	33.168	-10.5364	74.7398	33.1059	-26.0266	44.174	20.3517	-32.3163	19.5842	13.5374	1.12917	74.9453	15.1608	-20.8791	47.8322	6.14346	-26.3004	26.238	0.532194	4.65811	84.4642	-5.819	-4.57512	49.6211	-12.9816	-13.441	28.778	-6.5759	12.0607	114.49	20.0088	31.3752	124.695	19.1478	64.9579	106.464	53.7493	49.7253	
281	2.34167	66.8224	55.532	60.8941	35.5861	45.5407	39.9928	15.2845	31.8315	15.3369	5.02411	14.4109	-3.60626	72.3177	41.6319	-19.153	43.0398	29.5355	-34.3388	19.9028	16.5839	-14.1793	77.6157	19.8465	-25.9903	39.5391	8.12903	-32.9646	21.0179	-0.000675647	0.31281	80.0329	-1.05815	-18.2777	46.7762	-9.84205	-24.1767	27.3427	-7.5668	7.21336	84.9815	-17.2104	-4.10639	52.1915	-24.4204	-10.9498	29.6634	-21.3177	16.6026	114.575	13.1136	30.4983	125.326	17.0666	62.3748	107.757	49.1501	45.4698	
282	2.35	68.3352	49.6926	53.8617	35.7366	38.3504	35.8863	15.9493	21.5713	14.9578	9.30918	0.139705	-2.64286	71.4729	28.1445	-27.1342	47.7642	8.90071	-36.6182	22.0886	-0.0563967	-14.0722	79.2259	2.53635	-30.2804	44.2062	-10.5012	-33.7287	23.2722	-10.5919	-0.44748	79.3719	-15.2573	-22.331	50.6649	-25.5719	-22.9238	30.4053	-19.8757	5.2636	89.042	-29.8229	-2.95196	53.2225	-37.882	-8.11045	34.0944	-27.9369	16.1513	120.985	3.33103	28.5201	129.101	13.1079	62.0929	110.914	42.7763	38.2331	
283	2.35833	71.6968	40.9266	49.0723	40.6669	25.8982	29.9476	21.6312	6.66164	10.0451	17.488	-14.8883	-5.41736	78.2961	17.5819	-28.3954	50.0186	-4.95035	-38.694	23.6163	-10.8601	-17.5337	85.6085	-5.48395	-30.5319	52.1201	-23.8945	-35.5867	29.931	-23.0327	-2.91814	87.8839	-28.2536	-21.0822	55.7231	-38.9653	-23.3963	36.1217	-33.9694	3.99868	94.8008	-41.723	-2.34654	61.3744	-51.5988	-7.50577	43.0198	-39.675	15.0249	122.993	-3.4628	26.2945	134.212	3.70314	58.9356	114.725	35.0465	35.7303	
284	2.36667	74.356	32.3067	48.6404	42.6078	16.8891	28.4956	24.142	-0.836482	9.6042	19.4952	-26.5626	-10.9299	81.2047	12.1089	-29.3682	55.4145	-9.68827	-42.6221	28.0892	-18.4634	-20.8445	89.5121	-11.5055	-33.4539	55.802	-30.2934	-38.7183	33.4453	-29.0107	-5.62853	92.3393	-32.5541	-25.3071	65.1383	-46.5942	-26.4158	41.338	-39.9745	3.29383	97.3567	-43.5146	-7.54788	65.2958	-52.3141	-10.1592	49.5381	-46.9545	12.9138	127.447	-9.60704	24.4902	138.165	2.31358	58.3548	118.823	27.5304	35.8158	
285	2.375	74.4338	27.3049	46.844	46.7741	9.89487	28.8059	26.6537	-7.97654	7.74383	25.7106	-30.8786	-10.1295	81.5606	11.2257	-30.258	59.8376	-13.0569	-41.2688	32.9658	-23.2057	-22.1764	92.1214	-7.91352	-33.7644	59.8841	-30.2917	-40.6588	39.1602	-36.8546	-9.23743	96.2354	-32.1501	-27.3599	70.6639	-45.5618	-31.5928	48.3154	-47.7443	0.162377	104.132	-45.551	-11.8119	71.9322	-55.7004	-14.9438	53.3567	-55.2347	7.01509	130.442	-3.48287	23.7855	138.383	2.03562	52.6035	116.413	29.4	37.4727	
